<?xml version="1.0" encoding="utf-8"?>
<svg viewBox="145.361 209.711 202 70.831" xmlns="http://www.w3.org/2000/svg">
  <rect x="0" y="0" width="4" height="100" transform="matrix(1, 0, 0, 0.708309, 145.360821, 209.710751)"/>
  <rect x="6" y="0" width="2" height="100" transform="matrix(1, 0, 0, 0.708309, 145.360821, 209.710751)"/>
  <rect x="12" y="0" width="2" height="100" transform="matrix(1, 0, 0, 0.708309, 145.360821, 209.710751)"/>
  <rect x="22" y="0" width="2" height="100" transform="matrix(1, 0, 0, 0.708309, 145.360821, 209.710751)"/>
  <rect x="28" y="0" width="2" height="100" transform="matrix(1, 0, 0, 0.708309, 145.360821, 209.710751)"/>
  <rect x="34" y="0" width="8" height="100" transform="matrix(1, 0, 0, 0.708309, 145.360821, 209.710751)"/>
  <rect x="44" y="0" width="2" height="100" transform="matrix(1, 0, 0, 0.708309, 145.360821, 209.710751)"/>
  <rect x="54" y="0" width="4" height="100" transform="matrix(1, 0, 0, 0.708309, 145.360821, 209.710751)"/>
  <rect x="60" y="0" width="2" height="100" transform="matrix(1, 0, 0, 0.708309, 145.360821, 209.710751)"/>
  <rect x="66" y="0" width="2" height="100" transform="matrix(1, 0, 0, 0.708309, 145.360821, 209.710751)"/>
  <rect x="76" y="0" width="2" height="100" transform="matrix(1, 0, 0, 0.708309, 145.360821, 209.710751)"/>
  <rect x="80" y="0" width="4" height="100" transform="matrix(1, 0, 0, 0.708309, 145.360821, 209.710751)"/>
  <rect x="88" y="0" width="2" height="100" transform="matrix(1, 0, 0, 0.708309, 145.360821, 209.710751)"/>
  <rect x="94" y="0" width="4" height="100" transform="matrix(1, 0, 0, 0.708309, 145.360821, 209.710751)"/>
  <rect x="106" y="0" width="2" height="100" transform="matrix(1, 0, 0, 0.708309, 145.360821, 209.710751)"/>
  <rect x="110" y="0" width="2" height="100" transform="matrix(1, 0, 0, 0.708309, 145.360821, 209.710751)"/>
  <rect x="116" y="0" width="6" height="100" transform="matrix(1, 0, 0, 0.708309, 145.360821, 209.710751)"/>
  <rect x="126" y="0" width="4" height="100" transform="matrix(1, 0, 0, 0.708309, 145.360821, 209.710751)"/>
  <rect x="132" y="0" width="2" height="100" transform="matrix(1, 0, 0, 0.708309, 145.360821, 209.710751)"/>
  <rect x="136" y="0" width="4" height="100" transform="matrix(1, 0, 0, 0.708309, 145.360821, 209.710751)"/>
  <rect x="144" y="0" width="2" height="100" transform="matrix(1, 0, 0, 0.708309, 145.360821, 209.710751)"/>
  <rect x="154" y="0" width="2" height="100" transform="matrix(1, 0, 0, 0.708309, 145.360821, 209.710751)"/>
  <rect x="160" y="0" width="8" height="100" transform="matrix(1, 0, 0, 0.708309, 145.360821, 209.710751)"/>
  <rect x="170" y="0" width="2" height="100" transform="matrix(1, 0, 0, 0.708309, 145.360821, 209.710751)"/>
  <rect x="176" y="0" width="4" height="100" transform="matrix(1, 0, 0, 0.708309, 145.360821, 209.710751)"/>
  <rect x="186" y="0" width="6" height="100" transform="matrix(1, 0, 0, 0.708309, 145.360821, 209.710751)"/>
  <rect x="194" y="0" width="2" height="100" transform="matrix(1, 0, 0, 0.708309, 145.360821, 209.710751)"/>
  <rect x="198" y="0" width="4" height="100" transform="matrix(1, 0, 0, 0.708309, 145.360821, 209.710751)"/>
</svg>